<svg width="14" height="13" viewBox="0 0 14 13" fill="none" xmlns="http://www.w3.org/2000/svg">
<path d="M13.4494 7.87896V12.8521H10.5661V8.21225C10.5661 7.04725 10.1498 6.25165 9.1059 6.25165C8.30923 6.25165 7.83596 6.78728 7.62695 7.30592C7.55105 7.49127 7.53148 7.74866 7.53148 8.00863V12.8519H4.64799C4.64799 12.8519 4.68669 4.99354 4.64799 4.1801H7.5317V5.40897C7.52589 5.41864 7.51772 5.4281 7.51256 5.43735H7.5317V5.40897C7.91487 4.81937 8.59822 3.97647 10.1303 3.97647C12.0272 3.97647 13.4494 5.21587 13.4494 7.87896ZM1.63161 0C0.645291 0 0 0.647442 0 1.49808C0 2.33066 0.626584 2.99681 1.59377 2.99681H1.61248C2.61815 2.99681 3.24344 2.33066 3.24344 1.49808C3.22431 0.647442 2.61815 0 1.63161 0ZM0.171375 12.8521H3.05379V4.1801H0.171375V12.8521Z" fill="white"/>
</svg>
