<svg width="24" height="24" viewBox="0 0 24 24" fill="none" xmlns="http://www.w3.org/2000/svg">
<path fill-rule="evenodd" clip-rule="evenodd" d="M12 0C18.6166 0 24 5.3835 24 12C24 18.6166 18.6166 24 12 24C5.3835 24 0 18.6166 0 12C0 5.3835 5.3835 0 12 0ZM19.4887 18.0001C17.7277 20.1935 15.025 21.6 12 21.6C8.97498 21.6 6.27211 20.1934 4.51117 17.9999C6.27212 15.8065 8.97492 14.4 11.9999 14.4C15.0248 14.4 17.7277 15.8066 19.4887 18.0001ZM12 12C13.9883 12 15.6 10.3882 15.6 8.4C15.6 6.41178 13.9883 4.8 12 4.8C10.0118 4.8 8.4 6.41178 8.4 8.4C8.4 10.3882 10.0118 12 12 12Z" fill="white"/>
</svg>
