<svg width="17" height="12" viewBox="0 0 17 12" fill="none" xmlns="http://www.w3.org/2000/svg">
<path d="M15.6861 1.76354C15.5027 1.06874 14.9599 0.523512 14.2699 0.33775C13.0203 0 8.01191 0 8.01191 0C8.01191 0 3.00115 0 1.75389 0.33775C1.06391 0.523512 0.5211 1.06874 0.33775 1.76354C0 3.02045 0 5.64525 0 5.64525C0 5.64525 -1.38044e-07 8.27005 0.335337 9.52696C0.518687 10.2218 1.0615 10.767 1.75148 10.9528C3.00115 11.2905 8.0095 11.2905 8.0095 11.2905C8.0095 11.2905 13.0203 11.2905 14.2675 10.9528C14.9575 10.767 15.5003 10.2218 15.6837 9.52696C16.019 8.27005 16.019 5.64525 16.019 5.64525C16.019 5.64525 16.019 3.02045 15.6861 1.76354ZM6.37141 8.02639V3.26411L10.5571 5.64525L6.37141 8.02639Z" fill="white"/>
</svg>
